:version 1.10
:name ASF
:units
  mass 1
  length 1
  angle deg
:documentation
  ASF file generated by Kaydara
:root
  axis xyz
  order  tx ty tz rx ry rz
  position 0 0 0
  orientation 0 0 0
:bonedata
  begin
    id 1
    name RightUpLegDummy
    direction -0.718183 -0.695806 0.00816078
    length 4.904
    axis 0 0 0 xyz
  end
  begin
    id 2
    name RightUpLeg
    direction 3.53373e-006 -0.995788 0.0916898
    length 17.4976
    axis -3.49089 -0.000906625 0.000286804 xyz
    dof rx ry rz
  end
  begin
    id 3
    name RightLeg
    direction 0.00371092 -0.995096 -0.0988419
    length 16.5821
    axis 3.68512 0.0193738 -0.131023 xyz
    dof rx ry rz
  end
  begin
    id 4
    name RightFoot
    direction 0.00079151 -0.46099 0.887405
    length 3.77069
    axis 4.81691e-005 -0.120479 -0.188788 xyz
    dof rx ry rz
  end
  begin
    id 5
    name RightToes
    direction 0 0 0
    length 0
    axis 0 0 0 xyz
    dof rx ry rz
  end
  begin
    id 6
    name SpineDummy
    direction 8.3039e-015 1 4.57515e-016
    length 4.6813
    axis 0 0 0 xyz
  end
  begin
    id 7
    name Spine
    direction -3.15643e-008 0.999988 0.00495137
    length 10.1015
    axis -0.001389 0.000121418 2.40972e-006 xyz
    dof rx ry rz
  end
  begin
    id 8
    name Spine1
    direction 0 0 0
    length 0
    axis -0.001389 0.000121451 1.30017e-006 xyz
    dof rx ry rz
  end
  begin
    id 9
    name HEadDummy
    direction -1.99912e-008 0.999999 0.00127422
    length 3.43865
    axis -0.001389 0.000121451 1.30017e-006 xyz
  end
  begin
    id 10
    name HEad
    direction 0 0 0
    length 0
    axis 0 0 0 xyz
    dof rx ry rz
  end
  begin
    id 11
    name LeftShoulder1Dummy
    direction 0.998891 -0.0402509 -0.0244456
    length 3.5433
    axis -0.001389 0.000121451 1.30017e-006 xyz
  end
  begin
    id 12
    name LeftShoulder1
    direction 0.99951 -0.000327763 0.0313091
    length 4.05031
    axis -0.001389 0.000121451 1.30017e-006 xyz
    dof rx ry rz
  end
  begin
    id 13
    name LeftArm
    direction 0.998561 -0.00100056 -0.0536182
    length 10.3537
    axis -23.1894 0.134784 0.967509 xyz
    dof rx ry rz
  end
  begin
    id 14
    name LeftForeArm
    direction 0.998903 0.00866432 0.046012
    length 8.70632
    axis -9.91835 -0.06569 -0.177794 xyz
    dof rx ry rz
  end
  begin
    id 15
    name LeftHand
    direction 0 0 0
    length 0
    axis 0 0 0 xyz
    dof rx ry rz
  end
  begin
    id 16
    name RightShoulderDummy
    direction -0.998891 -0.0402509 -0.0244414
    length 3.5433
    axis -0.001389 0.000121451 1.30017e-006 xyz
  end
  begin
    id 17
    name RightShoulder
    direction -0.99951 -0.000327807 0.0313133
    length 4.05031
    axis 0.215806 0.000203643 -0.0068026 xyz
    dof rx ry rz
  end
  begin
    id 18
    name RightArm
    direction -0.998573 -0.000999564 -0.053403
    length 10.3947
    axis -23.2009 -0.134239 -0.964101 xyz
    dof rx ry rz
  end
  begin
    id 19
    name RightForeArm
    direction -0.998898 0.00868028 0.0461306
    length 8.68355
    axis -9.92322 0.0658061 0.178868 xyz
    dof rx ry rz
  end
  begin
    id 20
    name RightHand
    direction 0 0 0
    length 0
    axis 0 0 0 xyz
    dof rx ry rz
  end
  begin
    id 21
    name LeftUpLegDummy
    direction 0.718183 -0.695806 0.00816078
    length 4.904
    axis 0 0 0 xyz
  end
  begin
    id 22
    name LeftUpLeg
    direction -6.81752e-006 -0.995793 0.0916337
    length 17.4976
    axis -3.48766 0.00143442 -0.000524262 xyz
    dof rx ry rz
  end
  begin
    id 23
    name LeftLeg
    direction -0.00601358 -0.995091 -0.0987824
    length 16.5821
    axis 3.68178 -0.00654042 -0.000285133 xyz
    dof rx ry rz
  end
  begin
    id 24
    name LeftFoot
    direction -0.00417578 -0.460984 0.887399
    length 3.77069
    axis 1.87233e-006 4.66016e-005 -8.6538e-006 xyz
    dof rx ry rz
  end
  begin
    id 25
    name LeftToes
    direction 0 0 0
    length 0
    axis 0 0 0 xyz
    dof rx ry rz
  end
:hierarchy
  begin
    root RightUpLegDummy SpineDummy LeftUpLegDummy
    RightUpLegDummy RightUpLeg
    RightUpLeg RightLeg
    RightLeg RightFoot
    RightFoot RightToes
    SpineDummy Spine
    Spine Spine1
    Spine1 HEadDummy LeftShoulder1Dummy RightShoulderDummy
    HEadDummy HEad
    LeftShoulder1Dummy LeftShoulder1
    LeftShoulder1 LeftArm
    LeftArm LeftForeArm
    LeftForeArm LeftHand
    RightShoulderDummy RightShoulder
    RightShoulder RightArm
    RightArm RightForeArm
    RightForeArm RightHand
    LeftUpLegDummy LeftUpLeg
    LeftUpLeg LeftLeg
    LeftLeg LeftFoot
    LeftFoot LeftToes
  end

:SAMPLES-PER-SECOND 30
:FULLY-SPECIFIED
:DEGREES
1
root  74.619 40.3749 1.14138 170.471 -87.0084 -174.572
RightUpLeg  3.5795 -8.87423 -5.85965
RightLeg  4.50571 -10.1006 3.59955
RightFoot  -1.86675 -0.0138715 -0.0460088
RightToes  0.000481921 0.542163 -0.142578
Spine  0.093182 1.11006 0.0237159
Spine1  7.47926 0.840445 1.64298
HEad  -5.12845 1.20314 1.1765
LeftShoulder1  1.29649 -3.75107 -10.5697
LeftArm  -19.1672 7.52179 0.202063
LeftForeArm  12.1546 0.224239 -0.708622
LeftHand  -0.25398 0.0180481 5.50724
RightShoulder  0.30095 -0.932457 4.05677
RightArm  -31.1033 -2.58503 2.8301
RightForeArm  0.988091 0.590434 -0.393317
RightHand  -1.12903 5.19361 -12.7115
LeftUpLeg  5.55911 6.73276 5.97176
LeftLeg  4.42699 14.28 -2.58051
LeftFoot  -4.41282 0.1464 -2.17259
LeftToes  1.06245e-005 4.65868e-005 -8.65515e-006
2
root  74.619 40.3749 1.14178 170.298 -87.0226 -174.409
RightUpLeg  3.57949 -8.87413 -5.86132
RightLeg  4.53728 -10.0931 3.59473
RightFoot  -1.87681 -0.0138715 -0.0460088
RightToes  0.000481921 0.542163 -0.142578
Spine  0.0106141 1.08025 -0.0216327
Spine1  7.60133 0.780695 1.74561
HEad  -5.20921 1.15842 0.93912
LeftShoulder1  1.26963 -3.58438 -10.613
LeftArm  -19.1946 7.42237 0.11789
LeftForeArm  12.1712 0.184316 -0.72282
LeftHand  -0.25398 0.0180481 5.50724
RightShoulder  0.300912 -0.926642 3.91094
RightArm  -31.1791 -2.54557 2.93352
RightForeArm  1.01751 0.566731 -0.412658
RightHand  -1.14273 5.32214 -12.7155
LeftUpLeg  5.55375 6.73573 5.98101
LeftLeg  4.45804 14.2615 -2.56877
LeftFoot  -4.42926 0.149841 -2.2261
LeftToes  1.06245e-005 4.65868e-005 -8.65515e-006
3
root  74.6195 40.3746 1.14357 170.273 -87.0315 -174.432
RightUpLeg  3.57969 -8.87576 -5.86863
RightLeg  4.62822 -10.1116 3.56892
RightFoot  -1.90614 -0.0139287 -0.0451194
RightToes  0.000481921 0.542163 -0.142578
Spine  -0.0566467 1.04457 -0.0866267
Spine1  7.72317 0.705041 1.8849
HEad  -5.09503 1.40712 0.950087
LeftShoulder1  1.23667 -3.34882 -10.757
LeftArm  -19.1872 7.2333 0.084808
LeftForeArm  12.16 0.212654 -0.755484
LeftHand  -0.25398 0.0180481 5.50724
RightShoulder  0.301127 -0.929467 3.69632
RightArm  -31.2653 -2.49084 3.08872
RightForeArm  1.16274 0.567013 -0.429923
RightHand  -1.15471 5.47312 -12.6765
LeftUpLeg  5.59804 6.69713 5.96162
LeftLeg  4.46263 14.2939 -2.53188
LeftFoot  -4.44498 0.153134 -2.27731
LeftToes  1.06245e-005 4.65868e-005 -8.65515e-006
4
root  74.6228 40.3732 1.14599 170.206 -87.0412 -174.395
RightUpLeg  3.56683 -8.88267 -5.871
RightLeg  4.71491 -10.1409 3.54926
RightFoot  -1.93592 -0.0141828 -0.0411741
RightToes  0.000481921 0.542163 -0.142578
Spine  -0.0720507 1.0258 -0.0698731
Spine1  7.70814 0.683383 1.88948
HEad  -4.40619 2.23311 1.94946
LeftShoulder1  1.22664 -3.26335 -10.8433
LeftArm  -19.2128 7.09704 0.11251
LeftForeArm  12.2375 0.386257 -0.734894
LeftHand  -0.25398 0.0180481 5.50724
RightShoulder  0.306109 -0.870338 3.63905
RightArm  -31.3223 -2.52307 3.10872
RightForeArm  1.32149 0.575865 -0.453486
RightHand  -1.15103 5.5109 -12.5966
LeftUpLeg  5.63017 6.64343 5.92757
LeftLeg  4.44277 14.3437 -2.48476
LeftFoot  -4.46925 0.154067 -2.29183
LeftToes  1.06245e-005 4.65868e-005 -8.65515e-006
5
root  74.6304 40.3703 1.14852 169.691 -87.0724 -173.846
RightUpLeg  3.50912 -8.88075 -5.84355
RightLeg  4.74714 -10.1726 3.54868
RightFoot  -1.95132 -0.0147041 -0.0330798
RightToes  0.000481921 0.542163 -0.142578
Spine  -0.0973748 1.02986 0.00501091
Spine1  7.60596 0.707278 1.81812
HEad  -4.35441 2.11842 1.91775
LeftShoulder1  1.24673 -3.37757 -10.8359
LeftArm  -19.2749 7.09432 0.150664
LeftForeArm  12.3871 0.563387 -0.671527
LeftHand  -0.25398 0.0180481 5.50724
RightShoulder  0.321092 -0.761932 3.73877
RightArm  -31.3396 -2.64208 2.95394
RightForeArm  1.5263 0.527052 -0.500775
RightHand  -1.14411 5.55078 -12.4813
LeftUpLeg  5.55735 6.65084 5.93359
LeftLeg  4.49308 14.3005 -2.45117
LeftFoot  -4.53508 0.156518 -2.32994
LeftToes  1.06245e-005 4.65868e-005 -8.65515e-006
6
root  74.6396 40.3648 1.15253 168.601 -87.1003 -172.723
RightUpLeg  3.46419 -8.85718 -5.78467
RightLeg  4.75077 -10.2193 3.54753
RightFoot  -1.95815 -0.0155842 -0.0194157
RightToes  0.000481921 0.542163 -0.142578
Spine  -0.12313 1.04231 0.0640597
Spine1  7.55118 0.718087 1.83236
HEad  -4.27801 1.99232 1.91804
LeftShoulder1  1.28646 -3.5598 -10.9437
LeftArm  -19.1519 7.21424 0.303347
LeftForeArm  12.2739 0.521467 -0.710374
LeftHand  -0.25398 0.0180481 5.50724
RightShoulder  0.325662 -0.720627 3.72781
RightArm  -31.276 -2.73873 2.85079
RightForeArm  1.85225 0.4465 -0.536228
RightHand  -1.14452 5.67849 -12.3508
LeftUpLeg  5.4274 6.74717 6.00073
LeftLeg  4.68109 14.1462 -2.41677
LeftFoot  -4.67201 0.162294 -2.41978
LeftToes  1.06245e-005 4.65868e-005 -8.65515e-006
7
root  74.6456 40.357 1.1626 167.071 -87.0858 -171.255
RightUpLeg  3.51884 -8.83741 -5.72831
RightLeg  4.76419 -10.2434 3.5511
RightFoot  -1.97603 -0.0154584 -0.0213681
RightToes  0.000481921 0.542163 -0.142578
Spine  -0.0682889 1.0285 0.154504
Spine1  7.57986 0.693618 1.86509
HEad  -4.36753 1.96901 1.84628
LeftShoulder1  1.31994 -3.659 -11.1842
LeftArm  -18.7711 7.41569 0.586613
LeftForeArm  11.7581 0.252958 -0.895965
LeftHand  -0.25398 0.0180481 5.50724
RightShoulder  0.315263 -0.764828 3.51183
RightArm  -31.1164 -2.76061 2.95343
RightForeArm  2.15185 0.447549 -0.506694
RightHand  -1.14263 5.76994 -12.2367
LeftUpLeg  5.36107 6.88144 6.08951
LeftLeg  4.9774 13.9762 -2.33225
LeftFoot  -4.88746 0.166743 -2.48897
LeftToes  1.06245e-005 4.65868e-005 -8.65515e-006
8
root  74.6442 40.3486 1.18235 165.647 -87.0455 -169.968
RightUpLeg  3.66446 -8.86969 -5.73096
RightLeg  4.78963 -10.1717 3.5914
RightFoot  -2.01753 -0.0149162 -0.0297873
RightToes  0.000481921 0.542163 -0.142578
Spine  0.0546804 0.984549 0.315755
Spine1  7.63679 0.671447 1.76242
HEad  -4.59461 2.1019 1.9235
LeftShoulder1  1.31701 -3.62545 -11.2331
LeftArm  -18.4677 7.60012 0.70875
LeftForeArm  11.2423 0.00559348 -1.05262
LeftHand  -0.25398 0.0180481 5.50724
RightShoulder  0.307774 -0.802109 3.37813
RightArm  -30.9481 -2.7398 3.06116
RightForeArm  2.18868 0.553532 -0.427611
RightHand  -1.13246 5.7408 -12.1618
LeftUpLeg  5.37944 6.97776 6.12854
LeftLeg  5.28696 13.8818 -2.184
LeftFoot  -5.13989 0.165121 -2.46563
LeftToes  1.06245e-005 4.65868e-005 -8.65515e-006
9
root  74.6339 40.3414 1.20948 165.234 -87.0146 -169.675
RightUpLeg  3.79684 -8.95888 -5.82045
RightLeg  4.83655 -10.0171 3.64607
RightFoot  -2.06989 -0.0173937 0.00868118
RightToes  0.000481921 0.542163 -0.142578
Spine  0.117324 0.971576 0.384654
Spine1  7.72313 0.684764 1.67639
HEad  -4.79741 2.1925 2.14896
LeftShoulder1  1.27806 -3.49619 -10.993
LeftArm  -18.4897 7.60964 0.48556
LeftForeArm  11.0583 -0.0177555 -1.062
LeftHand  -0.25398 0.0180481 5.50724
RightShoulder  0.306934 -0.834878 3.50114
RightArm  -30.8725 -2.68092 2.95102
RightForeArm  1.85904 0.642181 -0.358157
RightHand  -1.12699 5.64803 -12.2003
LeftUpLeg  5.42675 6.99837 6.06861
LeftLeg  5.50566 13.8958 -2.02959
LeftFoot  -5.34055 0.159334 -2.3813
LeftToes  1.06245e-005 4.65868e-005 -8.65515e-006
10
root  74.6163 40.3377 1.23817 166.088 -86.9667 -170.582
RightUpLeg  3.84178 -9.03341 -5.93638
RightLeg  4.91156 -9.8921 3.64054
RightFoot  -2.10301 -0.0230801 0.096968
RightToes  0.000481921 0.542163 -0.142578
Spine  0.0385973 1.03592 0.217967
Spine1  7.89413 0.715949 1.86229
HEad  -4.84386 2.10404 2.21408
LeftShoulder1  1.24374 -3.35564 -10.8518
LeftArm  -18.5684 7.4359 0.246448
LeftForeArm  10.975 0.0768793 -1.05579
LeftHand  -0.25398 0.0180481 5.50724
RightShoulder  0.296949 -0.940722 3.59486
RightArm  -30.8485 -2.58063 2.77173
RightForeArm  1.16154 0.625408 -0.304351
RightHand  -1.13017 5.42489 -12.4703
LeftUpLeg  5.48325 6.95373 5.94116
LeftLeg  5.57968 14.0201 -1.93982
LeftFoot  -5.42911 0.155385 -2.32364
LeftToes  1.06245e-005 4.65868e-005 -8.65515e-006
11
root  74.5944 40.3377 1.26599 166.955 -86.8588 -171.438
RightUpLeg  3.81682 -9.01591 -5.96747
RightLeg  4.94784 -9.86395 3.5651
RightFoot  -2.10093 -0.0273736 0.163034
RightToes  0.000481921 0.542163 -0.142578
Spine  -0.157757 1.11462 0.00112898
Spine1  8.1385 0.725824 2.1571
HEad  -4.6952 2.01641 2.04588
LeftShoulder1  1.24155 -3.27805 -11.0431
LeftArm  -18.3968 7.30769 0.369717
LeftForeArm  10.6216 0.0865097 -1.16008
LeftHand  -0.25398 0.0180481 5.50724
RightShoulder  0.279971 -1.05161 3.40545
RightArm  -30.7816 -2.49978 2.77165
RightForeArm  0.306528 0.552331 -0.244377
RightHand  -1.12362 4.97436 -12.9055
LeftUpLeg  5.52614 6.90542 5.85407
LeftLeg  5.56949 14.1885 -1.92595
LeftFoot  -5.44694 0.155853 -2.33411
LeftToes  1.06245e-005 4.65868e-005 -8.65515e-006
